<svg width="160" height="160" viewBox="0 0 160 160" fill="none" xmlns="http://www.w3.org/2000/svg">
  <defs>
    <linearGradient id="g" x1="20" y1="140" x2="140" y2="20" gradientUnits="userSpaceOnUse">
      <stop stop-color="#FACC15"/>
      <stop offset="1" stop-color="#FDBA74"/>
    </linearGradient>
    <filter id="shadow" x="-10" y="-10" width="180" height="180" color-interpolation-filters="sRGB">
      <feDropShadow dx="0" dy="6" stdDeviation="8" flood-color="#111827" flood-opacity="0.35"/>
    </filter>
  </defs>
  <rect x="10" y="10" width="140" height="140" rx="28" fill="url(#g)" filter="url(#shadow)"/>
  <path d="M96.5 36C77 36 61 52 61 71.5c0 4.7 1.1 9.1 3.1 13l-23 23a4 4 0 0 0 0 5.7l6.6 6.6a4 4 0 0 0 5.7 0l5.4-5.4 5.4 5.4a4 4 0 0 0 5.7 0l5.4-5.4 5.4 5.4a4 4 0 0 0 5.7 0l11.9-11.9A35.5 35.5 0 0 0 96.5 36Zm0 12a23.5 23.5 0 1 1 0 47 23.5 23.5 0 0 1 0-47Z" fill="#0B1224"/>
  <path d="M90 66.5c0-6.9 5.6-12.5 12.5-12.5S115 59.6 115 66.5 109.4 79 102.5 79 90 73.4 90 66.5Z" fill="#0B1224" opacity=".15"/>
  <text x="50%" y="122" text-anchor="middle" font-family="Inter, system-ui, -apple-system, sans-serif" font-size="38" font-weight="800" fill="#0B1224" letter-spacing="1">
    EK
  </text>
</svg>
